
<svg
    xmlns="http://www.w3.org/2000/svg"
      width="0.25in"
      height="0.25in"
      viewBox="0 0 0.25 0.25"
    ><g transform="scale(0.0625)" fill="#666666" stroke="none">
                    <path d="M 0.7406250000000001 0.49375L 0.9052083333333334 0.49375A 0.08229166666666667 0.08229166666666667 0 0 1 0.9875 0.5760416666666667L 0.9875 2.9131250000000004A 0.049375 0.049375 0 0 0 1.036875 2.9625000000000004L 1.4318750000000002 2.9625000000000004A 0.049375 0.049375 0 0 0 1.4812500000000002 2.9131250000000004L 1.4812500000000002 0.5760416666666667A 0.08229166666666667 0.08229166666666667 0 0 1 1.5635416666666668 0.49375L 3.3739583333333334 0.49375A 0.08229166666666667 0.08229166666666667 0 0 1 3.4562500000000003 0.5760416666666667L 3.4562500000000003 1.8927083333333334A 0.08229166666666667 0.08229166666666667 0 0 1 3.3739583333333334 1.975L 3.0118750000000003 1.975A 0.049375 0.049375 0 0 0 2.9625000000000004 2.024375L 2.9625000000000004 2.419375A 0.049375 0.049375 0 0 0 3.0118750000000003 2.46875L 3.3739583333333334 2.46875A 0.08229166666666667 0.08229166666666667 0 0 1 3.4562500000000003 2.551041666666667L 3.4562500000000003 3.3739583333333334A 0.08229166666666667 0.08229166666666667 0 0 1 3.3739583333333334 3.4562500000000003L 3.0447916666666672 3.4562500000000003A 0.08229166666666667 0.08229166666666667 0 0 1 2.9625000000000004 3.3739583333333334L 2.9625000000000004 3.0118750000000003A 0.049375 0.049375 0 0 0 2.9131250000000004 2.9625000000000004L 2.551041666666667 2.9625000000000004A 0.08229166666666667 0.08229166666666667 0 0 1 2.46875 2.8802083333333335L 2.46875 1.5635416666666668A 0.08229166666666667 0.08229166666666667 0 0 1 2.551041666666667 1.4812500000000002L 2.9131250000000004 1.4812500000000002A 0.049375 0.049375 0 0 0 2.9625000000000004 1.4318750000000002L 2.9625000000000004 1.036875A 0.049375 0.049375 0 0 0 2.9131250000000004 0.9875L 2.024375 0.9875A 0.049375 0.049375 0 0 0 1.975 1.036875L 1.975 3.3739583333333334A 0.08229166666666667 0.08229166666666667 0 0 1 1.8927083333333334 3.4562500000000003L 0.5760416666666667 3.4562500000000003A 0.08229166666666667 0.08229166666666667 0 0 1 0.49375 3.3739583333333334L 0.49375 0.5760416666666667A 0.08229166666666667 0.08229166666666667 0 0 1 0.5760416666666667 0.49375Z"/>

   
 </g></svg>